Coordinates
version=1
nRows=19
nColumns=36
inDegrees=yes

Units are S.I. units (second, meters, Newtons, ...)
If the header above contains a line with 'inDegrees', this indicates whether rotational values are in degrees (yes) or radians (no).

endheader
time	pelvis_tilt	pelvis_list	pelvis_rotation	pelvis_tx	pelvis_ty	pelvis_tz	hip_flexion_r	hip_adduction_r	hip_rotation_r	knee_angle_r	knee_angle_r_beta	ankle_angle_r	subtalar_angle_r	mtp_angle_r	hip_flexion_l	hip_adduction_l	hip_rotation_l	knee_angle_l	knee_angle_l_beta	ankle_angle_l	subtalar_angle_l	mtp_angle_l	lumbar_extension	lumbar_bending	lumbar_rotation	arm_flex_r	arm_add_r	arm_rot_r	elbow_flex_r	pro_sup_r	arm_flex_l	arm_add_l	arm_rot_l	elbow_flex_l	pro_sup_l
      5.56666670	    -31.73704442	      7.81440390	      3.33894051	      0.45276101	      0.65266175	     -0.02942182	     93.70933180	     -7.32796005	      8.49587786	     91.65344327	      1.59965436	     36.94410765	    -19.09965739	     -7.49999987	     91.09380101	     -5.02302500	     -3.57687953	     89.27711764	      1.55817965	     25.62858376	    -13.93106633	     -7.49999987	    -32.94941969	     -2.70139497	     -3.51626573	     78.78218477	     -5.44433930	     12.29667302	    121.10207439	    106.41375288	     89.31102279	      1.87738867	     23.19787320	    115.90260809	     99.37615010
      5.58333330	    -31.22073839	      7.84644509	      2.80979518	      0.46309172	      0.66055036	     -0.03177632	     91.79190312	     -7.11373572	      8.28316360	     90.22699236	      1.57475809	     36.85006563	    -18.93296137	     -7.49999987	     89.10731042	     -5.19079199	     -3.67728895	     87.91795112	      1.53445772	     25.53047408	    -14.05115498	     -7.49999987	    -32.45512958	     -2.80477789	     -3.33713559	     77.23898175	     -5.37713285	     12.52259770	    121.13108129	    106.41656882	     88.29267895	      1.89155250	     23.35852930	    116.19448258	     99.39923616
      5.60000000	    -30.58822127	      7.99067369	      1.99884918	      0.46698046	      0.67050812	     -0.02846350	     89.49618904	     -6.61233817	      8.15904257	     88.43640154	      1.54350639	     36.87104046	    -18.75889908	     -7.49999987	     86.74723300	     -5.66430070	     -3.93485370	     86.22020316	      1.50482643	     25.27108352	    -14.39691787	     -7.49999987	    -32.01298529	     -3.28578793	     -3.00593769	     75.73225501	     -5.30904716	     12.46589119	    121.23437681	    105.05645307	     87.13859928	      1.79454561	     23.32101095	    116.48200097	     97.89907694
      5.61666670	    -29.82341034	      8.09522904	      1.16870766	      0.46723745	      0.68859198	     -0.03018324	     86.82065163	     -6.27351913	      8.03687496	     85.87409411	      1.49878568	     36.30686417	    -18.51488081	     -7.49999987	     83.97803105	     -5.82637434	     -4.22907605	     83.89113496	      1.46417652	     24.55263146	    -14.81108924	     -7.49999987	    -32.08434590	     -3.66893441	     -2.69825994	     74.59774275	     -5.28381706	     12.74265147	    120.72096291	    101.61212291	     85.69529339	      1.44403753	     23.63243377	    116.55819661	     95.14273870
      5.63333330	    -29.09456058	      8.28705994	      0.25210566	      0.47050005	      0.69641385	     -0.03196964	     84.33920129	     -5.92702628	      8.12091082	     83.47548287	      1.45692202	     35.93787594	    -18.30449801	     -7.49999987	     81.27521868	     -6.05528476	     -4.64597272	     81.63644706	      1.42482479	     24.16815155	    -15.40668894	     -7.49999987	    -31.60676727	     -4.06431876	     -2.25125484	     72.71551949	     -5.42293509	     13.14310376	    120.19768931	    100.22086454	     84.01531726	      1.20382510	     23.82609129	    116.05202985	     93.52810364
      5.65000000	    -28.68744023	      8.19403200	     -0.43025285	      0.47234946	      0.70228597	     -0.02914992	     82.36876574	     -5.49611558	      8.01632661	     81.32466752	      1.41938321	     35.31834259	    -18.70778936	     -7.49999987	     79.52480387	     -6.35662198	     -4.86348071	     79.92601554	      1.39497213	     23.62450544	    -16.27446114	     -7.49999987	    -30.49119913	     -4.19669852	     -1.69493450	     70.63802817	     -5.21751236	     12.95419688	    119.61777093	    107.28492645	     81.83597960	      0.84009731	     23.44879225	    115.58823508	     98.55878785
      5.66666670	    -27.83818952	      8.06709632	     -0.99435358	      0.47109899	      0.72245224	     -0.02908988	     79.50285738	     -5.02488102	      8.05101104	     78.25486409	      1.36580503	     34.02322683	    -19.62142008	     -7.49999987	     76.72571695	     -6.43982967	     -5.16779083	     77.14098216	      1.34636413	     22.32197253	    -17.15098074	     -7.49999987	    -30.09944367	     -4.30228905	     -1.08373479	     68.43001158	     -5.18595771	     13.25811808	    118.91085290	    105.47330584	     79.55419735	      0.92201295	     23.54649360	    114.23193674	     97.13668043
      5.68333330	    -26.82406629	      7.95698130	     -1.38946632	      0.46896940	      0.73939984	     -0.02856135	     76.60051130	     -4.71091390	      8.07472010	     75.04230423	      1.30973529	     32.33154137	    -20.62510958	     -7.49999987	     74.05825399	     -6.38823826	     -5.48247994	     74.42286031	      1.29892395	     20.37872714	    -18.41984723	     -7.49999987	    -29.93080285	     -4.40968194	     -0.81818475	     65.95458813	     -4.94683743	     13.02658404	    117.22256612	    103.49972797	     77.27282256	      1.15357290	     23.71238794	    112.37697332	     94.90242648
      5.70000000	    -25.84693871	      7.64088436	     -1.64994712	      0.47388457	      0.74993274	     -0.02556982	     73.70297126	     -4.36854548	      7.85698295	     72.15324342	      1.25931166	     31.62050863	    -20.55549389	     -7.49999987	     71.37700590	     -6.57342700	     -5.60002090	     71.74846386	      1.25224693	     19.26635477	    -17.98815396	     -7.49999987	    -29.28649245	     -4.32671205	     -0.83736321	     62.88569566	     -4.85750102	     13.27888045	    116.81506174	    103.62841635	     74.07215886	      0.69118677	     24.24883299	    111.44029884	     94.97357407
      5.71666670	    -24.52485261	      7.57193795	     -1.86620843	      0.47942450	      0.76974523	     -0.03100970	     70.02094555	     -4.27553646	      8.17935811	     68.75665823	      1.20003007	     29.26740605	    -22.81344032	     -7.49999987	     67.81450156	     -6.20424802	     -6.09201394	     68.48745933	      1.19533166	     17.46000410	    -18.96735361	     -7.49999987	    -28.86981671	     -4.27583560	     -1.08804724	     58.88413746	     -4.86849294	     12.53196110	    114.67151847	    101.97741027	     70.08266958	      0.89185679	     24.26447126	    108.87143021	     93.42296418
      5.73333330	    -23.39152251	      7.32882904	     -1.61745075	      0.49206297	      0.78486654	     -0.03275548	     66.03217141	     -4.65524997	      8.06895677	     65.27165802	      1.13920534	     27.95038306	    -23.64047486	     -7.49999987	     64.19583004	     -5.71170278	     -6.47507032	     65.08750637	      1.13599129	     16.34189135	    -18.85795517	     -7.49999987	    -27.83152293	     -3.74867371	     -0.95116879	     54.38523398	     -5.66715209	     12.32400817	    113.29730386	    102.39562927	     64.28419299	      1.07228032	     24.24208254	    107.94799825	     93.43335056
      5.75000000	    -22.43238557	      6.86718441	     -0.97979897	      0.50721911	      0.79328803	     -0.02755373	     62.18135913	     -5.03348551	      7.55874003	     62.16429658	      1.08497165	     26.81736379	    -25.21825923	     -7.49999987	     60.64009037	     -5.39093448	     -6.54697615	     61.97660363	      1.08169579	     15.76589256	    -18.04561388	     -7.49999987	    -26.03954746	     -3.21010908	     -1.20109508	     48.44822718	     -5.65529091	     11.79563077	    112.79176588	    102.55168981	     57.33378421	      0.41822151	     24.09293201	    107.99271928	     93.21233590
      5.76666670	    -21.65094419	      6.36013585	     -0.42972355	      0.51394388	      0.80882831	     -0.02792170	     58.16238409	     -5.08940492	      7.12896582	     58.33122778	      1.01807198	     25.28122244	    -27.06175802	     -7.49999987	     57.12800975	     -4.99456188	     -6.39620059	     58.43364211	      1.01985945	     15.29916919	    -17.10690287	     -7.49999987	    -24.08346742	     -2.65618864	     -1.62690553	     42.44018948	     -5.14819954	     11.16022204	    111.46364216	    102.22087267	     50.95143293	     -0.19017719	     23.44505250	    107.08506814	     92.49914287
      5.78333330	    -20.56230583	      5.80279578	     -0.09066392	      0.52604098	      0.82789823	     -0.03299648	     53.28914557	     -5.10532243	      6.71576412	     53.49202348	      0.93361193	     23.21987676	    -28.70852022	     -7.49999987	     52.89771341	     -4.29212103	     -5.72567138	     54.28116077	      0.94738498	     14.00298887	    -17.16083309	     -7.49999987	    -22.53673237	     -1.77576187	     -2.27367164	     36.50012981	     -4.55915576	     11.39724128	    110.22613671	     97.70787884	     45.28839873	     -0.79795304	     22.72374047	    105.60877918	     87.58233532
      5.80000000	    -19.09700149	      5.37179909	     -0.13468567	      0.53950524	      0.84544322	     -0.03790282	     47.74844927	     -5.14847947	      6.39086998	     48.15770952	      0.84051059	     21.62174271	    -29.01156997	     -7.49999987	     47.84540757	     -3.60999773	     -5.08404485	     49.59391354	      0.86557708	     13.17740149	    -16.90766525	     -7.49999987	    -20.93753617	     -1.14046403	     -2.70847435	     30.66767947	     -3.92865456	     10.66016381	    107.64190208	     97.73907814	     38.93788708	     -1.08601470	     21.27375597	    102.84220668	     86.95417040
      5.81666670	    -17.74674237	      5.14720428	     -0.32805752	      0.54471814	      0.86209614	     -0.03737580	     42.55059074	     -5.06505923	      6.43710064	     42.72513731	      0.74569432	     19.53890943	    -29.73639862	     -7.49999987	     42.81498358	     -2.99176727	     -4.68136340	     44.47597622	      0.77625222	     11.72914629	    -17.13980378	     -7.49999987	    -18.97211200	     -0.91983299	     -3.50051304	     25.68278751	     -3.67434345	      9.98012183	    104.21948908	     97.40386003	     33.01713949	     -1.86384067	     20.06481001	     99.03248624	     86.10448951
      5.83333330	    -16.55729729	      4.93344902	     -0.68553057	      0.54319112	      0.87629266	     -0.03776592	     38.24248964	     -4.88169860	      6.67190446	     37.57722634	      0.65584632	     17.48466217	    -30.25658824	     -7.49999987	     38.57708038	     -2.50603824	     -4.03352868	     39.78777404	      0.69442766	     10.10285877	    -17.47788302	     -7.49999987	    -17.05046812	     -0.76605125	     -3.79385856	     22.13163841	     -3.96126160	      9.72360647	    100.33381141	     97.03391486	     27.61140634	     -2.04179739	     18.37583736	     94.43355852	     85.17507758
      5.85000000	    -15.59789771	      4.61844198	     -0.81300331	      0.54870789	      0.89134239	     -0.03800661	     33.98926022	     -4.57954353	      6.96968647	     32.01970704	      0.55884931	     14.93623919	    -30.98838245	     -7.49999987	     34.85372044	     -2.03198492	     -3.10638934	     34.99721717	      0.61081667	      7.84547644	    -18.68476320	     -7.49999987	    -15.33604863	     -0.50398825	     -4.57436036	     19.24136381	     -4.32128256	     10.49867038	     97.32522720	     93.62189699	     23.08432783	     -2.44945151	     16.64513464	     89.94261614	     81.64069954
      5.86666670	    -14.45150429	      4.33129902	     -0.87742918	      0.55298831	      0.90513345	     -0.03511950	     29.55063753	     -4.35875026	      7.06816341	     26.37571406	      0.46034305	     12.32898973	    -31.29036870	     -7.49999987	     30.71597149	     -1.71246289	     -2.23696801	     29.66844164	      0.51781199	      5.75418297	    -19.00956608	     -7.49999987	    -14.29289114	     -0.42858803	     -4.63383426	     16.30070671	     -4.65709847	      9.99197007	     95.31829523	     93.03752267	     19.02274996	     -2.86010619	     14.83438299	     85.34581963	     80.64404483
